<svg xmlns="http://www.w3.org/2000/svg" viewBox="0 0 1200 900" width="1200" height="900" role="img">
<defs>
  <linearGradient id="bg" x1="0" y1="0" x2="1" y2="1"><stop offset="0" stop-color="#fff1f1"/><stop offset="1" stop-color="#ffffff"/></linearGradient>
  <linearGradient id="red" x1="0" y1="0" x2="1" y2="1"><stop offset="0" stop-color="#ee3037"/><stop offset="1" stop-color="#b3121a"/></linearGradient>
  <linearGradient id="scr" x1="0" y1="0" x2="1" y2="1"><stop offset="0" stop-color="#232833"/><stop offset="1" stop-color="#0e1015"/></linearGradient>
  <linearGradient id="base" x1="0" y1="0" x2="0" y2="1"><stop offset="0" stop-color="#e9ecf0"/><stop offset="1" stop-color="#c3c8d0"/></linearGradient>
  <pattern id="dots" width="36" height="36" patternUnits="userSpaceOnUse"><circle cx="3" cy="3" r="2" fill="#d71920" opacity=".14"/></pattern>
  <filter id="sh" x="-20%" y="-20%" width="140%" height="150%"><feDropShadow dx="0" dy="14" stdDeviation="16" flood-color="#111318" flood-opacity=".18"/></filter>
  
</defs>
<rect width="1200" height="900" rx="40" fill="url(#bg)"/>
<rect x="640" y="60" width="500" height="380" fill="url(#dots)"/>
<circle cx="980" cy="220" r="250" fill="#d71920" opacity=".07"/>
<circle cx="170" cy="760" r="210" fill="#15181e" opacity=".05"/>
<g filter="url(#sh)"><rect x="140" y="130" width="920" height="640" rx="36" fill="#1b1f27"/></g><rect x="160" y="150" width="880" height="600" rx="26" fill="none" stroke="#2c323d" stroke-width="3"/><path d="M 250 230 H 470" stroke="#ff5b61" stroke-width="5" fill="none" stroke-linecap="round" stroke-linejoin="round" opacity=".85"/><path d="M 250 270 H 430 V 330" stroke="#ff5b61" stroke-width="5" fill="none" stroke-linecap="round" stroke-linejoin="round" opacity=".85"/><path d="M 250 310 H 390 V 400 H 470" stroke="#ff5b61" stroke-width="5" fill="none" stroke-linecap="round" stroke-linejoin="round" opacity=".85"/><path d="M 950 230 H 730" stroke="#ff5b61" stroke-width="5" fill="none" stroke-linecap="round" stroke-linejoin="round" opacity=".85"/><path d="M 950 270 H 770 V 330" stroke="#ff5b61" stroke-width="5" fill="none" stroke-linecap="round" stroke-linejoin="round" opacity=".85"/><path d="M 950 310 H 810 V 400 H 730" stroke="#ff5b61" stroke-width="5" fill="none" stroke-linecap="round" stroke-linejoin="round" opacity=".85"/><path d="M 470 620 H 300 V 690 H 240" stroke="#ff5b61" stroke-width="5" fill="none" stroke-linecap="round" stroke-linejoin="round" opacity=".85"/><path d="M 730 620 H 900 V 690 H 960" stroke="#ff5b61" stroke-width="5" fill="none" stroke-linecap="round" stroke-linejoin="round" opacity=".85"/><path d="M 600 570 V 700 H 520" stroke="#ff5b61" stroke-width="5" fill="none" stroke-linecap="round" stroke-linejoin="round" opacity=".85"/><path d="M 640 570 V 690 H 700" stroke="#ff5b61" stroke-width="5" fill="none" stroke-linecap="round" stroke-linejoin="round" opacity=".85"/><path d="M 250 480 H 400 V 520" stroke="#ff5b61" stroke-width="5" fill="none" stroke-linecap="round" stroke-linejoin="round" opacity=".85"/><path d="M 950 480 H 800 V 520" stroke="#ff5b61" stroke-width="5" fill="none" stroke-linecap="round" stroke-linejoin="round" opacity=".85"/><circle cx="250" cy="230" r="9" fill="#e9c46a"/><circle cx="250" cy="230" r="4" fill="#1b1f27"/><circle cx="250" cy="270" r="9" fill="#e9c46a"/><circle cx="250" cy="270" r="4" fill="#1b1f27"/><circle cx="250" cy="310" r="9" fill="#e9c46a"/><circle cx="250" cy="310" r="4" fill="#1b1f27"/><circle cx="950" cy="230" r="9" fill="#e9c46a"/><circle cx="950" cy="230" r="4" fill="#1b1f27"/><circle cx="950" cy="270" r="9" fill="#e9c46a"/><circle cx="950" cy="270" r="4" fill="#1b1f27"/><circle cx="950" cy="310" r="9" fill="#e9c46a"/><circle cx="950" cy="310" r="4" fill="#1b1f27"/><circle cx="240" cy="690" r="9" fill="#e9c46a"/><circle cx="240" cy="690" r="4" fill="#1b1f27"/><circle cx="960" cy="690" r="9" fill="#e9c46a"/><circle cx="960" cy="690" r="4" fill="#1b1f27"/><circle cx="520" cy="700" r="9" fill="#e9c46a"/><circle cx="520" cy="700" r="4" fill="#1b1f27"/><circle cx="700" cy="690" r="9" fill="#e9c46a"/><circle cx="700" cy="690" r="4" fill="#1b1f27"/><circle cx="250" cy="480" r="9" fill="#e9c46a"/><circle cx="250" cy="480" r="4" fill="#1b1f27"/><circle cx="950" cy="480" r="9" fill="#e9c46a"/><circle cx="950" cy="480" r="4" fill="#1b1f27"/><g transform="translate(600 440)"><rect x="-88.0" y="-121.0" width="8" height="16" rx="2" fill="#c8ccd4"/><rect x="-88.0" y="105.0" width="8" height="16" rx="2" fill="#c8ccd4"/><rect x="-121.0" y="-88.0" width="16" height="8" rx="2" fill="#c8ccd4"/><rect x="105.0" y="-88.0" width="16" height="8" rx="2" fill="#c8ccd4"/><rect x="-46.0" y="-121.0" width="8" height="16" rx="2" fill="#c8ccd4"/><rect x="-46.0" y="105.0" width="8" height="16" rx="2" fill="#c8ccd4"/><rect x="-121.0" y="-46.0" width="16" height="8" rx="2" fill="#c8ccd4"/><rect x="105.0" y="-46.0" width="16" height="8" rx="2" fill="#c8ccd4"/><rect x="-4.0" y="-121.0" width="8" height="16" rx="2" fill="#c8ccd4"/><rect x="-4.0" y="105.0" width="8" height="16" rx="2" fill="#c8ccd4"/><rect x="-121.0" y="-4.0" width="16" height="8" rx="2" fill="#c8ccd4"/><rect x="105.0" y="-4.0" width="16" height="8" rx="2" fill="#c8ccd4"/><rect x="38.0" y="-121.0" width="8" height="16" rx="2" fill="#c8ccd4"/><rect x="38.0" y="105.0" width="8" height="16" rx="2" fill="#c8ccd4"/><rect x="-121.0" y="38.0" width="16" height="8" rx="2" fill="#c8ccd4"/><rect x="105.0" y="38.0" width="16" height="8" rx="2" fill="#c8ccd4"/><rect x="80.0" y="-121.0" width="8" height="16" rx="2" fill="#c8ccd4"/><rect x="80.0" y="105.0" width="8" height="16" rx="2" fill="#c8ccd4"/><rect x="-121.0" y="80.0" width="16" height="8" rx="2" fill="#c8ccd4"/><rect x="105.0" y="80.0" width="16" height="8" rx="2" fill="#c8ccd4"/><rect x="-105.0" y="-105.0" width="210" height="210" rx="25.2" fill="#0c0e13"/><rect x="-57.75000000000001" y="-57.75000000000001" width="115.50000000000001" height="115.50000000000001" rx="12.6" fill="#232833"/><circle cx="-73.5" cy="-73.5" r="8.4" fill="#ff5b61"/></g><rect x="545" y="392" width="110" height="10" rx="5" fill="#3a404c"/><rect x="545" y="418" width="80" height="10" rx="5" fill="#3a404c"/><rect x="545" y="444" width="96" height="10" rx="5" fill="#3a404c"/><circle cx="640" cy="490" r="14" fill="#d71920"/><g transform="translate(300 590)"><rect x="-32.0" y="-51.0" width="8" height="16" rx="2" fill="#9aa1ad"/><rect x="-32.0" y="35.0" width="8" height="16" rx="2" fill="#9aa1ad"/><rect x="-51.0" y="-32.0" width="16" height="8" rx="2" fill="#9aa1ad"/><rect x="35.0" y="-32.0" width="16" height="8" rx="2" fill="#9aa1ad"/><rect x="-18.0" y="-51.0" width="8" height="16" rx="2" fill="#9aa1ad"/><rect x="-18.0" y="35.0" width="8" height="16" rx="2" fill="#9aa1ad"/><rect x="-51.0" y="-18.0" width="16" height="8" rx="2" fill="#9aa1ad"/><rect x="35.0" y="-18.0" width="16" height="8" rx="2" fill="#9aa1ad"/><rect x="-4.0" y="-51.0" width="8" height="16" rx="2" fill="#9aa1ad"/><rect x="-4.0" y="35.0" width="8" height="16" rx="2" fill="#9aa1ad"/><rect x="-51.0" y="-4.0" width="16" height="8" rx="2" fill="#9aa1ad"/><rect x="35.0" y="-4.0" width="16" height="8" rx="2" fill="#9aa1ad"/><rect x="10.0" y="-51.0" width="8" height="16" rx="2" fill="#9aa1ad"/><rect x="10.0" y="35.0" width="8" height="16" rx="2" fill="#9aa1ad"/><rect x="-51.0" y="10.0" width="16" height="8" rx="2" fill="#9aa1ad"/><rect x="35.0" y="10.0" width="16" height="8" rx="2" fill="#9aa1ad"/><rect x="24.0" y="-51.0" width="8" height="16" rx="2" fill="#9aa1ad"/><rect x="24.0" y="35.0" width="8" height="16" rx="2" fill="#9aa1ad"/><rect x="-51.0" y="24.0" width="16" height="8" rx="2" fill="#9aa1ad"/><rect x="35.0" y="24.0" width="16" height="8" rx="2" fill="#9aa1ad"/><rect x="-35.0" y="-35.0" width="70" height="70" rx="8.4" fill="#0c0e13"/><rect x="-19.25" y="-19.25" width="38.5" height="38.5" rx="4.2" fill="#232833"/><circle cx="-24.5" cy="-24.5" r="2.8000000000000003" fill="#ff5b61"/></g><g transform="translate(900 590)"><rect x="-32.0" y="-51.0" width="8" height="16" rx="2" fill="#9aa1ad"/><rect x="-32.0" y="35.0" width="8" height="16" rx="2" fill="#9aa1ad"/><rect x="-51.0" y="-32.0" width="16" height="8" rx="2" fill="#9aa1ad"/><rect x="35.0" y="-32.0" width="16" height="8" rx="2" fill="#9aa1ad"/><rect x="-18.0" y="-51.0" width="8" height="16" rx="2" fill="#9aa1ad"/><rect x="-18.0" y="35.0" width="8" height="16" rx="2" fill="#9aa1ad"/><rect x="-51.0" y="-18.0" width="16" height="8" rx="2" fill="#9aa1ad"/><rect x="35.0" y="-18.0" width="16" height="8" rx="2" fill="#9aa1ad"/><rect x="-4.0" y="-51.0" width="8" height="16" rx="2" fill="#9aa1ad"/><rect x="-4.0" y="35.0" width="8" height="16" rx="2" fill="#9aa1ad"/><rect x="-51.0" y="-4.0" width="16" height="8" rx="2" fill="#9aa1ad"/><rect x="35.0" y="-4.0" width="16" height="8" rx="2" fill="#9aa1ad"/><rect x="10.0" y="-51.0" width="8" height="16" rx="2" fill="#9aa1ad"/><rect x="10.0" y="35.0" width="8" height="16" rx="2" fill="#9aa1ad"/><rect x="-51.0" y="10.0" width="16" height="8" rx="2" fill="#9aa1ad"/><rect x="35.0" y="10.0" width="16" height="8" rx="2" fill="#9aa1ad"/><rect x="24.0" y="-51.0" width="8" height="16" rx="2" fill="#9aa1ad"/><rect x="24.0" y="35.0" width="8" height="16" rx="2" fill="#9aa1ad"/><rect x="-51.0" y="24.0" width="16" height="8" rx="2" fill="#9aa1ad"/><rect x="35.0" y="24.0" width="16" height="8" rx="2" fill="#9aa1ad"/><rect x="-35.0" y="-35.0" width="70" height="70" rx="8.4" fill="#0c0e13"/><rect x="-19.25" y="-19.25" width="38.5" height="38.5" rx="4.2" fill="#232833"/><circle cx="-24.5" cy="-24.5" r="2.8000000000000003" fill="#ff5b61"/></g><g transform="translate(360 200)"><rect x="-21.6" y="-38.0" width="8" height="16" rx="2" fill="#9aa1ad"/><rect x="-21.6" y="22.0" width="8" height="16" rx="2" fill="#9aa1ad"/><rect x="-38.0" y="-21.6" width="16" height="8" rx="2" fill="#9aa1ad"/><rect x="22.0" y="-21.6" width="16" height="8" rx="2" fill="#9aa1ad"/><rect x="-12.8" y="-38.0" width="8" height="16" rx="2" fill="#9aa1ad"/><rect x="-12.8" y="22.0" width="8" height="16" rx="2" fill="#9aa1ad"/><rect x="-38.0" y="-12.8" width="16" height="8" rx="2" fill="#9aa1ad"/><rect x="22.0" y="-12.8" width="16" height="8" rx="2" fill="#9aa1ad"/><rect x="-4.0" y="-38.0" width="8" height="16" rx="2" fill="#9aa1ad"/><rect x="-4.0" y="22.0" width="8" height="16" rx="2" fill="#9aa1ad"/><rect x="-38.0" y="-4.0" width="16" height="8" rx="2" fill="#9aa1ad"/><rect x="22.0" y="-4.0" width="16" height="8" rx="2" fill="#9aa1ad"/><rect x="4.800000000000001" y="-38.0" width="8" height="16" rx="2" fill="#9aa1ad"/><rect x="4.800000000000001" y="22.0" width="8" height="16" rx="2" fill="#9aa1ad"/><rect x="-38.0" y="4.800000000000001" width="16" height="8" rx="2" fill="#9aa1ad"/><rect x="22.0" y="4.800000000000001" width="16" height="8" rx="2" fill="#9aa1ad"/><rect x="13.600000000000001" y="-38.0" width="8" height="16" rx="2" fill="#9aa1ad"/><rect x="13.600000000000001" y="22.0" width="8" height="16" rx="2" fill="#9aa1ad"/><rect x="-38.0" y="13.600000000000001" width="16" height="8" rx="2" fill="#9aa1ad"/><rect x="22.0" y="13.600000000000001" width="16" height="8" rx="2" fill="#9aa1ad"/><rect x="-22.0" y="-22.0" width="44" height="44" rx="5.279999999999999" fill="#0c0e13"/><rect x="-12.100000000000001" y="-12.100000000000001" width="24.200000000000003" height="24.200000000000003" rx="2.6399999999999997" fill="#232833"/><circle cx="-15.399999999999999" cy="-15.399999999999999" r="1.76" fill="#ff5b61"/></g><g transform="translate(840 200)"><rect x="-21.6" y="-38.0" width="8" height="16" rx="2" fill="#9aa1ad"/><rect x="-21.6" y="22.0" width="8" height="16" rx="2" fill="#9aa1ad"/><rect x="-38.0" y="-21.6" width="16" height="8" rx="2" fill="#9aa1ad"/><rect x="22.0" y="-21.6" width="16" height="8" rx="2" fill="#9aa1ad"/><rect x="-12.8" y="-38.0" width="8" height="16" rx="2" fill="#9aa1ad"/><rect x="-12.8" y="22.0" width="8" height="16" rx="2" fill="#9aa1ad"/><rect x="-38.0" y="-12.8" width="16" height="8" rx="2" fill="#9aa1ad"/><rect x="22.0" y="-12.8" width="16" height="8" rx="2" fill="#9aa1ad"/><rect x="-4.0" y="-38.0" width="8" height="16" rx="2" fill="#9aa1ad"/><rect x="-4.0" y="22.0" width="8" height="16" rx="2" fill="#9aa1ad"/><rect x="-38.0" y="-4.0" width="16" height="8" rx="2" fill="#9aa1ad"/><rect x="22.0" y="-4.0" width="16" height="8" rx="2" fill="#9aa1ad"/><rect x="4.800000000000001" y="-38.0" width="8" height="16" rx="2" fill="#9aa1ad"/><rect x="4.800000000000001" y="22.0" width="8" height="16" rx="2" fill="#9aa1ad"/><rect x="-38.0" y="4.800000000000001" width="16" height="8" rx="2" fill="#9aa1ad"/><rect x="22.0" y="4.800000000000001" width="16" height="8" rx="2" fill="#9aa1ad"/><rect x="13.600000000000001" y="-38.0" width="8" height="16" rx="2" fill="#9aa1ad"/><rect x="13.600000000000001" y="22.0" width="8" height="16" rx="2" fill="#9aa1ad"/><rect x="-38.0" y="13.600000000000001" width="16" height="8" rx="2" fill="#9aa1ad"/><rect x="22.0" y="13.600000000000001" width="16" height="8" rx="2" fill="#9aa1ad"/><rect x="-22.0" y="-22.0" width="44" height="44" rx="5.279999999999999" fill="#0c0e13"/><rect x="-12.100000000000001" y="-12.100000000000001" width="24.200000000000003" height="24.200000000000003" rx="2.6399999999999997" fill="#232833"/><circle cx="-15.399999999999999" cy="-15.399999999999999" r="1.76" fill="#ff5b61"/></g><circle cx="190" cy="420" r="17" fill="#c8ccd4"/><circle cx="190" cy="420" r="10" fill="#8f96a2"/><circle cx="190" cy="470" r="17" fill="#c8ccd4"/><circle cx="190" cy="470" r="10" fill="#8f96a2"/><circle cx="1010" cy="420" r="17" fill="#c8ccd4"/><circle cx="1010" cy="420" r="10" fill="#8f96a2"/><circle cx="1010" cy="470" r="17" fill="#c8ccd4"/><circle cx="1010" cy="470" r="10" fill="#8f96a2"/><circle cx="520" cy="220" r="17" fill="#c8ccd4"/><circle cx="520" cy="220" r="10" fill="#8f96a2"/><circle cx="680" cy="220" r="17" fill="#c8ccd4"/><circle cx="680" cy="220" r="10" fill="#8f96a2"/><rect x="470" y="310" width="260" height="260" rx="34" fill="none" stroke="#ff5b61" stroke-width="4" stroke-dasharray="14 12"/><g filter="url(#sh)"><rect x="830" y="90" width="250" height="120" rx="26" fill="#fff"/></g><g transform="translate(900 150)"><rect x="-4.8" y="-35.4" width="9.6" height="12.6" rx="1.7999999999999998" fill="#d71920" transform="rotate(0.0)"/><rect x="-4.8" y="-35.4" width="9.6" height="12.6" rx="1.7999999999999998" fill="#d71920" transform="rotate(45.0)"/><rect x="-4.8" y="-35.4" width="9.6" height="12.6" rx="1.7999999999999998" fill="#d71920" transform="rotate(90.0)"/><rect x="-4.8" y="-35.4" width="9.6" height="12.6" rx="1.7999999999999998" fill="#d71920" transform="rotate(135.0)"/><rect x="-4.8" y="-35.4" width="9.6" height="12.6" rx="1.7999999999999998" fill="#d71920" transform="rotate(180.0)"/><rect x="-4.8" y="-35.4" width="9.6" height="12.6" rx="1.7999999999999998" fill="#d71920" transform="rotate(225.0)"/><rect x="-4.8" y="-35.4" width="9.6" height="12.6" rx="1.7999999999999998" fill="#d71920" transform="rotate(270.0)"/><rect x="-4.8" y="-35.4" width="9.6" height="12.6" rx="1.7999999999999998" fill="#d71920" transform="rotate(315.0)"/><circle r="30" fill="#d71920"/><circle r="12.6" fill="#fff"/></g><rect x="950" y="130" width="90" height="12" rx="6" fill="#c8ccd4"/><rect x="950" y="156" width="60" height="12" rx="6" fill="#e3e6ea"/></svg>
